<svg width="608" height="750" viewBox="0 0 608 750" fill="none" xmlns="http://www.w3.org/2000/svg">
<path d="M607.7 291.7C607.5 523.1 607.1 585 606.1 590.9C603.4 607 597.9 616.1 580 634.4C522.9 693 456 729.1 378 743.4C351.1 748.3 337.7 749.4 304 749.5C271.9 749.5 263.7 748.9 239.5 744.9C169 733.2 97.3001 696.8 44.7001 646C22.7001 624.8 12.6 613.2 8 603.7C-0.2 586.6 0.600049 618.2 0.300049 291.2L0 0H304H608L607.7 291.7Z" fill="#CCCCCC"/>
<path d="M17.2 56.8001C16 57.0001 14.5 58.0001 14 59.0001C13.3 60.3001 13.1 147.9 13.2 321.2L13.5 581.5L16.2 589.5C21 603.7 32.1 617.8 55 638.8C93.3 674 134.4 699.5 178.5 715.5C251.4 741.9 337.9 744.7 411.7 722.9C469.9 705.7 526.7 671 570.6 625.9C585.8 610.1 592.5 597 595 578C596.7 564.6 595.9 59.5001 594.2 57.8001C593.1 56.7001 540.1 56.5001 306.2 56.5001C148.5 56.4001 18.5 56.6001 17.2 56.8001ZM168 88.6001C168 89.5001 164.9 96.6001 161 104.4C150.1 126.5 145.9 143.9 145.9 167.5C145.8 206.3 160 243 186 271.2C203 289.7 224.2 301.1 248.3 304.8L254 305.7V298.5C254 282.6 263.8 256 276.4 237.4C279.4 233 279.6 232 277.6 232C276.9 232 272.7 230.2 268.3 228.1C259.3 223.5 249.7 215.3 245.1 208.2C242 203.3 238.6 195.1 239.4 194.2C239.7 194 242.4 195.2 245.4 196.9C259.3 204.9 272.9 207.6 306.5 208.9C322.3 209.5 332.5 210.4 336.5 211.4C345.6 213.8 356.3 219.5 362.4 225.1C368.1 230.3 375 238.9 375 240.9C375 241.6 372.3 242 367.3 242C345.7 242 328.5 248.7 324.4 258.7C320.1 268.9 326.3 278.9 344.4 291.1C349.4 294.5 355.5 298.9 357.8 300.8L362.2 304.3L370.3 302.6C388.7 298.7 402.6 290.5 419.1 274.1C440.4 252.8 453.5 228.2 460.1 197C463.3 181.9 463.4 155 460.2 140.3C457.2 126.3 452.9 114.6 445.8 100.8C436.9 83.6001 438.7 82.9001 458.1 96.1001C481.6 112.1 502.8 130.3 508.9 139.9C515.9 150.7 518 162.7 516.1 180.5C513.8 201.2 509.5 216.9 501 234.8C492.1 253.5 481.5 268.3 464 286.4L452.5 298.4L462.9 290.4C497.1 264.4 520.9 233.3 532.5 199.5C536 189.4 537 187.4 538.8 187.2C540.8 186.9 541.9 188.6 547.9 201.2C557.8 221.7 558.4 223.6 558.3 236.5C558.3 254 554.1 263 539.5 276.9C505.9 308.6 465.3 330.6 425.8 338.2C419.3 339.5 414 340.8 414 341.2C414 343.4 446.8 340.9 463.7 337.5C497 330.8 532.2 313.9 560.1 291.4C567.6 285.4 571.1 283.8 572.4 285.9C572.8 286.4 573.5 292.8 574.2 300C576.2 322.1 572.5 334.7 560.6 346.6C550.9 356.3 542.7 359.7 516 364.9C493.2 369.4 481.6 370.4 454 370.4C427.5 370.4 413.8 369.2 396 365.5C392.5 364.8 389.4 364.3 389.2 364.4C389.1 364.6 392.5 366.2 396.7 368C443.1 387.4 494.5 394 549.8 387.5C557.1 386.6 563.5 386.2 564.1 386.6C565.8 387.6 564.3 394.4 560.9 401.3C556.4 410.2 547.4 419.1 538.7 423.3C525.1 429.9 516 430.3 487.9 425.6C452.2 419.5 421.2 409.3 389 393L373.5 385.1L379.9 391C405 414.5 459.8 440 522.5 457.6C528 459.1 533.1 460.9 533.8 461.5C535.9 463.4 533.6 467.6 526.7 474.4C517.1 484 505.1 489 491.5 489C481.4 489 475 487 458.2 478.6C422.3 460.6 397.2 443.1 371.1 417.6L357.7 404.5L361 410.5C365.4 418.4 371.4 427.3 376.4 433.5C393.8 454.9 406.1 465.9 442.8 492.8C454.9 501.6 423 495.1 401.5 484.3C384.1 475.5 369.4 464.4 352 446.8L341.1 435.7L338.5 441.6C336.8 445.4 336 448.7 336.2 451C336.5 453.7 345.1 466.8 372.3 506.1C391.9 534.5 408 558.7 408 559.8C408 561.4 407 562.2 403.8 563.1C395.1 565.4 384.7 562.5 378.7 556.2C377.1 554.6 367.9 540.2 358.3 524.4C348.6 508.5 341 496.2 341.3 497C341.6 497.8 349.1 515.1 358 535.4C371.7 566.4 374 572.4 372.9 573.6C372.1 574.3 368.4 575.5 364.5 576.1C358.5 577.1 356.7 577.1 352 575.7C345.1 573.7 339.6 569.2 336.6 563.1C335.4 560.6 330.1 543.8 325 525.8C319.8 507.8 315.5 493.1 315.4 493.3C315.3 493.4 317.3 514.1 320 539.2C323.1 568.6 324.6 586 324.1 587.8C322.1 594.7 313 607.4 306.8 612L303.6 614.3L296.7 607.1C289.4 599.4 284 589.8 284 584.5C284 582.8 286 562.4 288.5 539.1C291 515.8 293 496 292.9 495.1C292.9 494.2 289.1 506.5 284.5 522.5C271.5 567.2 272.5 564.3 267.7 569.3C260.8 576.4 251.6 578.5 240.5 575.7C235.9 574.5 235.5 574.1 235.6 571.4C235.6 569.8 242.9 552.1 251.8 532.1C260.7 512.1 267.6 496.1 267.1 496.6C266.6 497.1 259 509.6 250 524.5C241.1 539.3 232.7 553 231.4 554.7C227.6 559.7 220.9 563.2 213.7 563.7C206.2 564.3 199.5 562.1 200.2 559.3C200.5 558.3 217 533.9 236.8 505.1C258.1 474.3 273 451.8 273 450.5C273 448.6 268.7 437.4 267.5 436.1C267.3 435.9 263.1 440 258.3 445.1C241.3 463 219.5 479.1 201.7 486.9C184.9 494.2 163 499.3 163 495.8C163 495 167 491.6 172 488.2C206.3 464.4 232.6 437.3 247.9 409.8C251.1 404.2 250.9 404.3 237.8 417.3C212.5 442.2 183.5 462.5 148.5 479.5C131.8 487.6 127.2 489 117.3 489C101.7 489 87.3 482.2 77.8 470.2C74.6 466.3 72.7 461 74.5 461C74.7 461 84 458.3 95.0001 454.9C153.7 437.3 196.5 417.3 225.1 394.2C236.8 384.8 236.4 384.3 223 391.3C202 402.3 182.1 410.3 159.1 416.9C137.1 423.2 105.6 428.9 92.8001 429C71.2 429.1 52.7 416.1 45.1 395.6C43.1 390.2 43 386 45 386C45.4 386 51.8 386.7 59.2 387.7C78 390 120.8 390 138.3 387.7C156 385.3 172.6 381.7 187.4 376.9C200.3 372.8 217.4 366.1 216.7 365.4C216.5 365.1 210.9 365.8 204.3 366.9C162 373.8 114 371.5 73.1 360.5C67.9 359.1 61.2 356.6 58.3 354.9C47.5 348.7 39 337.7 35.5 325.6C33.2 317.8 33.3 300.2 35.6 287.7C36.5 283.4 39.2 284.3 50.3 292.9C84.1 318.9 118.3 334 156 339.4C170.2 341.4 193.5 342.6 194.3 341.3C194.7 340.7 192.9 340 189.7 339.6C174.5 337.6 151.9 330.4 133.5 321.6C111.5 311.1 94.3001 299.4 73.7 281.1C56 265.5 51 256.5 50.2 238.8C49.6 225.6 51.1 220.2 60.7 201C66.5 189.6 67.9 187.5 69.8 187.5C71.8 187.5 72.5 188.8 76 199.1C87.9 234.8 113.5 267.3 151.5 295.1C156.9 299 156.3 298.3 146.5 288.5C112.1 254.2 94.0001 216.1 92.3001 174.4C91.7 159.5 92.6001 153.9 97.4001 144C102.6 133.1 122.6 115 150.8 95.8001C163.2 87.3001 168 85.3001 168 88.6001ZM230.6 597.5C241.4 599.4 257.4 604.6 266.7 609.4C275.8 613.9 289.9 623.5 297.9 630.4L304.2 635.9L311.1 630C330.3 613.4 354.7 601.5 377.4 597.5C386.3 596 405.3 595.5 412.2 596.6C415.9 597.2 416.1 597.5 418 603.8C419 607.4 419.8 610.6 419.6 610.8C419.4 611 415.5 610.4 411 609.6C400.4 607.5 381.9 607.6 369.9 609.6C351.3 612.8 329.1 621.6 312.6 632.3L304.2 637.8L298.4 633.8C284.8 624.7 264.9 615.9 247.5 611.4C237.4 608.7 235 608.5 218.5 608.5C206.5 608.5 198.7 609 195.2 609.9C192.3 610.6 189.6 610.9 189.3 610.6C188.9 610.2 189.5 607.2 190.6 603.8C192.2 598.9 193.1 597.4 195 596.9C199.7 595.6 221.7 596 230.6 597.5ZM246 621.7C263.1 624.5 286 633.5 299.9 642.8L304.2 645.8L311.2 641.3C324.3 632.8 341.5 625.8 357.4 622.6C380.2 617.9 408.3 618.8 428.4 625L434.5 626.9L446.3 650.6C452.8 663.6 457.8 674.5 457.6 674.7C457.3 675 454.4 673.6 451.1 671.6C410.6 647 354.8 637.7 315.6 649.1L304.7 652.2L292.7 649C286.2 647.2 277.3 645.4 273.1 644.9C236.6 641.1 193 650.8 160.3 670C155.6 672.8 151.5 674.8 151.2 674.5C150.9 674.2 156 663.3 162.6 650.2L174.5 626.5L185.5 623.7C204.4 618.9 225 618.2 246 621.7ZM194.3 683.3L198.1 691.5L201.7 683.2C204.9 675.9 205.5 675 207.9 675H210.6L210.8 685.2C210.9 690.9 211.3 696.3 211.6 697.2C212 698.7 211.5 699 208.6 699H205V691.2L204.9 683.5L201.6 691C199.8 695.1 197.6 698.6 196.8 698.8C195.8 699 194.1 696.5 191.7 691.3L188.1 683.5V691.2C188 697.9 187.8 699 186.3 699C184.7 699 184.5 697.8 184.5 687V675H187.5C190.3 675 190.8 675.6 194.3 683.3ZM237.8 677.7C238.2 680.4 238.2 680.4 234.1 678.4C228.4 675.6 224 679.4 224 687.1C224 690.3 225.6 694 227.4 695.2C229 696.3 233.8 696.2 236.1 695C237.7 694.1 238 694.3 238 695.9C238 698.3 236.1 699 229.5 699C222 699 218.9 696.3 218.2 689.2C217.3 679.1 221.2 674.9 231.5 675.3C236.9 675.5 237.5 675.7 237.8 677.7ZM253.9 683.2C257.5 691 257.8 691.4 258.8 689C263.8 676.7 264.9 675 267.7 675H270.5V687V699H267.5H264.5L264.8 690.7L265.1 682.5L261.4 690.7C259.3 695.4 257 699 256.3 699C255.5 699 253.4 695.7 251.5 691.7C247.8 683.5 246.3 684.1 247.3 693.6C247.8 698.4 247.6 699 246 699C244.3 699 244.2 698.1 244.3 687L244.5 675H247.3C249.7 675 250.4 675.8 253.9 683.2ZM285 685.5V696H287.5C288.9 696 290.9 695.5 292 694.8C294.4 693.3 295.4 694.2 294.5 696.9C293.9 698.8 293.1 699 286.2 699H278.5V687V675H281.8H285V685.5ZM307.4 676.7C307.8 677.7 308.9 679.6 309.9 680.9L311.8 683.3L314.1 679.2C315.8 676.2 317.2 675 318.8 675C321.7 675 321.6 675.4 317.5 680.4C315.6 682.8 314 685.3 314 686.1C314 686.9 315.8 689.9 318 692.8C320.2 695.7 322 698.3 322 698.5C322 698.8 320.2 699 318 699C315.8 699 314 698.7 314 698.2C314 697.8 312.9 695.7 311.6 693.6L309.3 689.7L306.5 694.3C304.5 697.8 303.2 699 301.4 699C300.1 699 299 698.7 299 698.4C299 698.1 300.8 695.7 303 693.1C305.2 690.5 307 688 307 687.6C307 687.2 305.4 684.6 303.5 681.7C301.6 678.9 300 676.2 300 675.8C300 675.3 301.5 675 303.4 675C305.8 675 307 675.5 307.4 676.7ZM336 679L338.5 683.1L340.7 680.3C342 678.8 343 676.9 343 676.2C343 675.5 344.3 675 346 675H349.1L344.9 680.5L340.7 686L344.6 691.8C349.7 699.3 349.7 699 345.7 699C342.6 699 341.9 698.5 339.5 694.4L336.8 689.8L334.4 693.4C333.1 695.3 332 697.4 332 697.9C332 698.5 330.7 699 329 699C325.4 699 325.3 698.7 328.4 695.2C329.7 693.7 331.7 691.4 332.8 690L334.8 687.6L330.9 681.8C328.7 678.7 327 675.9 327 675.6C327 675.2 328.5 675 330.3 675C333 675 333.9 675.7 336 679ZM362.9 683.7L366.3 692.4L368.2 688C369.3 685.5 370.6 681.6 371.3 679.2C372.2 675.8 372.9 675 374.7 675C376 675 377 675.1 377 675.2C377 675.4 374.8 680.7 372.1 687C368 696.4 366.7 698.5 365 698.5C363.3 698.5 362 696.4 358 687C355.3 680.7 353 675.4 353 675.2C353 675.1 354.5 675 356.3 675C359.4 675 359.6 675.3 362.9 683.7ZM389 687V699H386H383V687V675H386H389V687ZM403.5 687V699H400.3H397V687V675H400.3H403.5V687ZM417.5 687V699H414.5H411.5V687V675H414.5H417.5V687Z" fill="#940028"/>
</svg>
